<mxfile host="app.diagrams.net" modified="2020-11-17T13:04:22.985Z" agent="5.0 (Windows NT 10.0; Win64; x64) AppleWebKit/537.36 (KHTML, like Gecko) Chrome/86.0.4240.198 Safari/537.36" etag="JS3V1W53KSUC4Pa8J_Eb" version="13.9.1" type="github">
  <diagram id="prtHgNgQTEPvFCAcTncT" name="Page-1">
    <mxGraphModel dx="1002" dy="626" grid="1" gridSize="10" guides="1" tooltips="1" connect="1" arrows="1" fold="1" page="1" pageScale="1" pageWidth="827" pageHeight="1169" math="0" shadow="0">
      <root>
        <mxCell id="0" />
        <mxCell id="1" parent="0" />
        <mxCell id="cWNBWAhWPImur9xWbaco-8" style="edgeStyle=orthogonalEdgeStyle;rounded=0;orthogonalLoop=1;jettySize=auto;html=1;exitX=1;exitY=0.5;exitDx=0;exitDy=0;entryX=0;entryY=0.5;entryDx=0;entryDy=0;" edge="1" parent="1" source="cWNBWAhWPImur9xWbaco-1" target="cWNBWAhWPImur9xWbaco-2">
          <mxGeometry relative="1" as="geometry" />
        </mxCell>
        <mxCell id="cWNBWAhWPImur9xWbaco-9" style="edgeStyle=orthogonalEdgeStyle;rounded=0;orthogonalLoop=1;jettySize=auto;html=1;exitX=1;exitY=0.5;exitDx=0;exitDy=0;entryX=0.006;entryY=0.638;entryDx=0;entryDy=0;entryPerimeter=0;" edge="1" parent="1" source="cWNBWAhWPImur9xWbaco-1" target="cWNBWAhWPImur9xWbaco-3">
          <mxGeometry relative="1" as="geometry" />
        </mxCell>
        <mxCell id="cWNBWAhWPImur9xWbaco-1" value="游客/用户" style="rounded=0;whiteSpace=wrap;html=1;" vertex="1" parent="1">
          <mxGeometry x="80" y="470" width="90" height="60" as="geometry" />
        </mxCell>
        <mxCell id="cWNBWAhWPImur9xWbaco-15" style="edgeStyle=orthogonalEdgeStyle;rounded=0;orthogonalLoop=1;jettySize=auto;html=1;exitX=1;exitY=0.5;exitDx=0;exitDy=0;entryX=0.504;entryY=-0.1;entryDx=0;entryDy=0;entryPerimeter=0;" edge="1" parent="1" source="cWNBWAhWPImur9xWbaco-2" target="cWNBWAhWPImur9xWbaco-14">
          <mxGeometry relative="1" as="geometry" />
        </mxCell>
        <mxCell id="cWNBWAhWPImur9xWbaco-2" value="拍照程序" style="ellipse;whiteSpace=wrap;html=1;aspect=fixed;" vertex="1" parent="1">
          <mxGeometry x="314" y="330" width="80" height="80" as="geometry" />
        </mxCell>
        <mxCell id="cWNBWAhWPImur9xWbaco-16" style="edgeStyle=orthogonalEdgeStyle;rounded=0;orthogonalLoop=1;jettySize=auto;html=1;exitX=1;exitY=0.5;exitDx=0;exitDy=0;entryX=0.5;entryY=1;entryDx=0;entryDy=0;" edge="1" parent="1" source="cWNBWAhWPImur9xWbaco-3" target="cWNBWAhWPImur9xWbaco-14">
          <mxGeometry relative="1" as="geometry" />
        </mxCell>
        <mxCell id="cWNBWAhWPImur9xWbaco-3" value="调用本地照片接口程序" style="ellipse;whiteSpace=wrap;html=1;aspect=fixed;" vertex="1" parent="1">
          <mxGeometry x="310" y="570" width="80" height="80" as="geometry" />
        </mxCell>
        <mxCell id="cWNBWAhWPImur9xWbaco-5" style="edgeStyle=orthogonalEdgeStyle;rounded=0;orthogonalLoop=1;jettySize=auto;html=1;exitX=0.5;exitY=0;exitDx=0;exitDy=0;entryX=0.5;entryY=1;entryDx=0;entryDy=0;" edge="1" parent="1" source="cWNBWAhWPImur9xWbaco-4" target="cWNBWAhWPImur9xWbaco-2">
          <mxGeometry relative="1" as="geometry" />
        </mxCell>
        <mxCell id="cWNBWAhWPImur9xWbaco-6" style="edgeStyle=orthogonalEdgeStyle;rounded=0;orthogonalLoop=1;jettySize=auto;html=1;exitX=0.5;exitY=1;exitDx=0;exitDy=0;entryX=0.594;entryY=-0.006;entryDx=0;entryDy=0;entryPerimeter=0;" edge="1" parent="1" source="cWNBWAhWPImur9xWbaco-4" target="cWNBWAhWPImur9xWbaco-3">
          <mxGeometry relative="1" as="geometry" />
        </mxCell>
        <mxCell id="cWNBWAhWPImur9xWbaco-4" value="数据库中该用户信息" style="shape=partialRectangle;whiteSpace=wrap;html=1;left=0;right=0;fillColor=none;" vertex="1" parent="1">
          <mxGeometry x="294" y="470" width="120" height="60" as="geometry" />
        </mxCell>
        <mxCell id="cWNBWAhWPImur9xWbaco-10" value="&lt;font style=&quot;font-size: 22px&quot;&gt;*&lt;/font&gt;" style="text;html=1;align=center;verticalAlign=middle;resizable=0;points=[];autosize=1;" vertex="1" parent="1">
          <mxGeometry x="294" y="390" width="20" height="20" as="geometry" />
        </mxCell>
        <mxCell id="cWNBWAhWPImur9xWbaco-11" value="&lt;font style=&quot;font-size: 22px&quot;&gt;*&lt;/font&gt;" style="text;html=1;align=center;verticalAlign=middle;resizable=0;points=[];autosize=1;" vertex="1" parent="1">
          <mxGeometry x="290" y="560" width="20" height="20" as="geometry" />
        </mxCell>
        <mxCell id="cWNBWAhWPImur9xWbaco-12" value="拍照" style="text;html=1;align=center;verticalAlign=middle;resizable=0;points=[];autosize=1;" vertex="1" parent="1">
          <mxGeometry x="200" y="390" width="40" height="20" as="geometry" />
        </mxCell>
        <mxCell id="cWNBWAhWPImur9xWbaco-13" value="选择本地照片" style="text;html=1;align=center;verticalAlign=middle;resizable=0;points=[];autosize=1;" vertex="1" parent="1">
          <mxGeometry x="165" y="560" width="90" height="20" as="geometry" />
        </mxCell>
        <mxCell id="cWNBWAhWPImur9xWbaco-20" style="edgeStyle=orthogonalEdgeStyle;rounded=0;orthogonalLoop=1;jettySize=auto;html=1;exitX=1;exitY=0.5;exitDx=0;exitDy=0;entryX=0;entryY=0.5;entryDx=0;entryDy=0;" edge="1" parent="1" source="cWNBWAhWPImur9xWbaco-14" target="cWNBWAhWPImur9xWbaco-17">
          <mxGeometry relative="1" as="geometry" />
        </mxCell>
        <mxCell id="cWNBWAhWPImur9xWbaco-14" value="照片" style="shape=partialRectangle;whiteSpace=wrap;html=1;left=0;right=0;fillColor=none;" vertex="1" parent="1">
          <mxGeometry x="520" y="470" width="120" height="60" as="geometry" />
        </mxCell>
        <mxCell id="cWNBWAhWPImur9xWbaco-21" style="edgeStyle=orthogonalEdgeStyle;rounded=0;orthogonalLoop=1;jettySize=auto;html=1;exitX=0.5;exitY=1;exitDx=0;exitDy=0;entryX=0.5;entryY=0;entryDx=0;entryDy=0;" edge="1" parent="1" source="cWNBWAhWPImur9xWbaco-17" target="cWNBWAhWPImur9xWbaco-18">
          <mxGeometry relative="1" as="geometry" />
        </mxCell>
        <mxCell id="cWNBWAhWPImur9xWbaco-17" value="识别照片程序" style="ellipse;whiteSpace=wrap;html=1;aspect=fixed;" vertex="1" parent="1">
          <mxGeometry x="710" y="460" width="80" height="80" as="geometry" />
        </mxCell>
        <mxCell id="cWNBWAhWPImur9xWbaco-22" style="edgeStyle=orthogonalEdgeStyle;rounded=0;orthogonalLoop=1;jettySize=auto;html=1;exitX=0.5;exitY=1;exitDx=0;exitDy=0;entryX=0.5;entryY=0;entryDx=0;entryDy=0;" edge="1" parent="1" source="cWNBWAhWPImur9xWbaco-18" target="cWNBWAhWPImur9xWbaco-19">
          <mxGeometry relative="1" as="geometry" />
        </mxCell>
        <mxCell id="cWNBWAhWPImur9xWbaco-18" value="匹配度较高的植物信息集合" style="shape=partialRectangle;whiteSpace=wrap;html=1;left=0;right=0;fillColor=none;" vertex="1" parent="1">
          <mxGeometry x="690" y="630" width="120" height="60" as="geometry" />
        </mxCell>
        <mxCell id="cWNBWAhWPImur9xWbaco-24" style="edgeStyle=orthogonalEdgeStyle;rounded=0;orthogonalLoop=1;jettySize=auto;html=1;exitX=0;exitY=0.5;exitDx=0;exitDy=0;entryX=0.417;entryY=1.008;entryDx=0;entryDy=0;entryPerimeter=0;" edge="1" parent="1" source="cWNBWAhWPImur9xWbaco-19" target="cWNBWAhWPImur9xWbaco-1">
          <mxGeometry relative="1" as="geometry" />
        </mxCell>
        <mxCell id="cWNBWAhWPImur9xWbaco-25" style="edgeStyle=orthogonalEdgeStyle;rounded=0;orthogonalLoop=1;jettySize=auto;html=1;exitX=0;exitY=0;exitDx=0;exitDy=0;entryX=0.5;entryY=1;entryDx=0;entryDy=0;" edge="1" parent="1" source="cWNBWAhWPImur9xWbaco-19" target="cWNBWAhWPImur9xWbaco-23">
          <mxGeometry relative="1" as="geometry" />
        </mxCell>
        <mxCell id="cWNBWAhWPImur9xWbaco-19" value="匹配诗词程序" style="ellipse;whiteSpace=wrap;html=1;aspect=fixed;" vertex="1" parent="1">
          <mxGeometry x="710" y="760" width="80" height="80" as="geometry" />
        </mxCell>
        <mxCell id="cWNBWAhWPImur9xWbaco-27" style="edgeStyle=orthogonalEdgeStyle;rounded=0;orthogonalLoop=1;jettySize=auto;html=1;exitX=0;exitY=0.5;exitDx=0;exitDy=0;entryX=1;entryY=0.5;entryDx=0;entryDy=0;" edge="1" parent="1" source="cWNBWAhWPImur9xWbaco-23" target="cWNBWAhWPImur9xWbaco-26">
          <mxGeometry relative="1" as="geometry" />
        </mxCell>
        <mxCell id="cWNBWAhWPImur9xWbaco-23" value="生成美图" style="ellipse;whiteSpace=wrap;html=1;aspect=fixed;" vertex="1" parent="1">
          <mxGeometry x="560" y="650" width="80" height="80" as="geometry" />
        </mxCell>
        <mxCell id="cWNBWAhWPImur9xWbaco-29" style="edgeStyle=orthogonalEdgeStyle;rounded=0;orthogonalLoop=1;jettySize=auto;html=1;exitX=0;exitY=0.5;exitDx=0;exitDy=0;entryX=1;entryY=0.5;entryDx=0;entryDy=0;" edge="1" parent="1" source="cWNBWAhWPImur9xWbaco-26" target="cWNBWAhWPImur9xWbaco-28">
          <mxGeometry relative="1" as="geometry" />
        </mxCell>
        <mxCell id="cWNBWAhWPImur9xWbaco-26" value="分享到朋友圈" style="ellipse;whiteSpace=wrap;html=1;aspect=fixed;" vertex="1" parent="1">
          <mxGeometry x="390" y="650" width="80" height="80" as="geometry" />
        </mxCell>
        <mxCell id="cWNBWAhWPImur9xWbaco-28" value="朋友圈" style="rounded=0;whiteSpace=wrap;html=1;" vertex="1" parent="1">
          <mxGeometry x="200" y="660" width="100" height="60" as="geometry" />
        </mxCell>
        <mxCell id="cWNBWAhWPImur9xWbaco-30" value="获取照片" style="text;html=1;align=center;verticalAlign=middle;resizable=0;points=[];autosize=1;" vertex="1" parent="1">
          <mxGeometry x="450" y="340" width="60" height="20" as="geometry" />
        </mxCell>
        <mxCell id="cWNBWAhWPImur9xWbaco-31" value="获取照片" style="text;html=1;align=center;verticalAlign=middle;resizable=0;points=[];autosize=1;" vertex="1" parent="1">
          <mxGeometry x="430" y="590" width="60" height="20" as="geometry" />
        </mxCell>
        <mxCell id="cWNBWAhWPImur9xWbaco-32" value="照片进入识别程序" style="text;html=1;align=center;verticalAlign=middle;resizable=0;points=[];autosize=1;" vertex="1" parent="1">
          <mxGeometry x="625" y="540" width="110" height="20" as="geometry" />
        </mxCell>
        <mxCell id="cWNBWAhWPImur9xWbaco-34" value="返回植物信息" style="text;html=1;align=center;verticalAlign=middle;resizable=0;points=[];autosize=1;" vertex="1" parent="1">
          <mxGeometry x="660" y="580" width="90" height="20" as="geometry" />
        </mxCell>
        <mxCell id="cWNBWAhWPImur9xWbaco-35" value="选择合适的植物" style="text;html=1;align=center;verticalAlign=middle;resizable=0;points=[];autosize=1;" vertex="1" parent="1">
          <mxGeometry x="660" y="720" width="100" height="20" as="geometry" />
        </mxCell>
        <mxCell id="cWNBWAhWPImur9xWbaco-36" value="返回客户照片识别得到的植物信息" style="text;html=1;align=center;verticalAlign=middle;resizable=0;points=[];autosize=1;" vertex="1" parent="1">
          <mxGeometry x="280" y="800" width="200" height="20" as="geometry" />
        </mxCell>
        <mxCell id="cWNBWAhWPImur9xWbaco-37" value="点击生成美图" style="text;html=1;align=center;verticalAlign=middle;resizable=0;points=[];autosize=1;" vertex="1" parent="1">
          <mxGeometry x="600" y="750" width="90" height="20" as="geometry" />
        </mxCell>
        <mxCell id="cWNBWAhWPImur9xWbaco-38" value="点击分享到朋友圈" style="text;html=1;align=center;verticalAlign=middle;resizable=0;points=[];autosize=1;" vertex="1" parent="1">
          <mxGeometry x="460" y="710" width="110" height="20" as="geometry" />
        </mxCell>
        <mxCell id="cWNBWAhWPImur9xWbaco-39" value="分享" style="text;html=1;align=center;verticalAlign=middle;resizable=0;points=[];autosize=1;" vertex="1" parent="1">
          <mxGeometry x="320" y="700" width="40" height="20" as="geometry" />
        </mxCell>
      </root>
    </mxGraphModel>
  </diagram>
</mxfile>
